<svg width="100" height="100" viewBox="0 0 100 100" fill="none" xmlns="http://www.w3.org/2000/svg">
<g clip-path="url(#clip0)">
<path d="M85.3902 77V24H99.5V77H85.3902Z" fill="#C6773E" stroke="black"/>
<path d="M-2.5 32H85.5V68H-2.5V32Z" fill="#E27D34" stroke="black"/>
<circle cx="47.5" cy="50.5" r="12" fill="#C2272D" stroke="black"/>
<path fill-rule="evenodd" clip-rule="evenodd" d="M14.5 46C13.342 49.587 13.5052 52.0398 15 55.5C17.0456 60.2353 23.9801 63.4937 23.9801 63.4937C23.9801 63.4937 23.1467 73.0719 27.5 77.5C30.5022 80.5539 33.2185 81.9114 37.5 82C42.4949 82.1034 49 77.8952 49 77.8952C49 77.8952 54.9277 82.455 60 82C65.1451 81.5385 69.2541 78.6519 71.5 74C73.226 70.4249 72.5 65.5 72.5 65.5C72.5 65.5 76.6418 62.3428 78.5627 57.5C80.3125 53.0888 80.7599 49.7063 78.5627 45.5C76.2784 41.1268 71.5 37 71.5 37C70.3284 31.3374 72.3115 27.5581 68.5 23.2095C65.7559 20.0787 63.675 19.2513 59.5195 19C54.5237 18.6979 52.092 20.9798 47.6112 23.2095C47.6112 23.2095 39.3099 18.1322 33.5 19C28.7303 19.7124 26.2697 21.2555 23.9801 25.5C21.775 29.588 23.0718 36.3935 23.0718 36.3935C23.0718 36.3935 16.2118 40.6973 14.5 46ZM43.5 27.5L44.5 38.2935L50.4641 38.2935L51.5 27.5L61 26L65.5 36.3935L57.0522 42.114L59.5195 46.9458L68.5 43L74.5 50.5L69.5 58.619L59.0849 54.5492L57.0583 58.619L66.5 64.5L63 74L51.5 72.5L50 62.5L45.5 62.5L44.5 72.5L35 75.6535L30 65L38.4054 58.8349L35.8568 54.0455L27 58L20 50.5L26.5 42.114L36.1627 46.4359L38.3984 42.0144L29.5 36.3935L31.5 26.5L43.5 27.5Z" fill="#C2272D" stroke="black"/>
<circle cx="47.5" cy="50.5" r="4" fill="#665F5B" stroke="black"/>
</g>
<defs>
<clipPath id="clip0">
<rect width="100" height="100" fill="white"/>
</clipPath>
</defs>
</svg>
