<svg width="100" height="100" viewBox="0 0 100 100" fill="none" xmlns="http://www.w3.org/2000/svg">
<g clip-path="url(#clip0)">
<path d="M85.3902 77V24H99.5V77H85.3902Z" fill="#C6773E" stroke="black"/>
<path d="M-2.5 32H85.5V68H-2.5V32Z" fill="#E27D34" stroke="black"/>
<circle cx="47.5" cy="50.5" r="12" fill="#F43535" stroke="black"/>
<path fill-rule="evenodd" clip-rule="evenodd" d="M13 46.5L13 56.1519L23.9801 63.4937L27.5 79L37.5 83.5L49 77.8952L66.0439 82L73.5 75.6535L72.6046 65.4064L82.0176 56.1519L82.0176 44L72.2551 38.7394L68.5 22.5L59.0849 17.5L47.6112 23.2095L33.5 18L23 24.5L23.0718 36.3935L13 46.5ZM41.9097 25.9467L44.9666 38.1596L50.4641 38.2935L51.698 27.3973L61.6113 23.1281L66.1792 33.4423L57.0522 42.114L59.5195 46.9458L69.7991 43.1274L78.084 50.0455L70.9431 58.778L59.0849 54.5492L57.0583 58.619L66.0439 64.9046L65.0631 75.6535L53.8193 74.7438L50.5563 62.5843L45.0573 62.5434L44.0078 73.4589L34.1682 77.8952L29.4264 67.6597L38.4054 58.8349L35.8568 54.0455L25.6433 58.0372L17.2425 51.2602L24.2348 42.4082L36.1628 46.4359L38.3984 42.0144L29.5204 35.5777L30.6829 24.847L41.9097 25.9467Z" fill="#F43535" stroke="black"/>
</g>
<defs>
<clipPath id="clip0">
<rect width="100" height="100" fill="white"/>
</clipPath>
</defs>
</svg>
